<?xml version="1.0" encoding="utf-8"?>
<svg viewBox="0 0 500 500" xmlns="http://www.w3.org/2000/svg">
  <path style="stroke: rgb(0, 0, 0); stroke-width: 8px; fill: rgb(238, 238, 238);" d="M 291.685 466.799 C 321.65 487.137 364.777 416.359 327.895 386.559 L 97.233 228.034 C 55.526 210.888 28.962 287.351 64.148 308.7 L 291.685 466.799 Z M 327.901 387.357 C 298.785 365.662 253.153 438.247 291.39 466.738"/>
  <path style="stroke: rgb(0, 0, 0); fill: rgb(56, 56, 56); stroke-width: 8px;" d="M 396.337 120.792 C 430.109 139.788 453.479 152.136 474.163 179.543 C 544.786 288.276 348.672 374.089 327.94 397.317 C 301.82 426.582 295.638 452.077 360.463 421.685 C 403.58 385.215 452.369 359.819 475.211 323.069 C 507.05 258.755 473.538 197.292 386.962 158.793 C 260.568 102.588 112.362 237.739 112.362 237.739 L 89.473 225.797 C 168.812 118.309 311.973 73.339 396.337 120.792 Z"/>
</svg>