<svg xmlns="http://www.w3.org/2000/svg" xmlns:xlink="http://www.w3.org/1999/xlink" viewBox="0 0 64 64">
  <metadata id="metadata28">image/svg+xml</metadata>
  <defs id="defs8">
    <linearGradient id="innoGrad1">
      <stop id="stop2" stop-color="#f55" offset="0" />
      <stop id="stop4" stop-color="#ff8080" offset="1" />
    </linearGradient>
    <linearGradient xlink:href="#innoGrad1" y2="0.14069" y1="0.6106" x2="0.75717" x1="0.44708" id="linearGradient15" />
  </defs>
  <g>
    <title>Layer 1</title>
    <path id="ellipse10"
      d="m32,62.38698c-16.78619,0 -30.383,-13.59592 -30.383,-30.381c0,-16.78508 13.59681,-30.381 30.383,-30.381c16.78619,0 30.383,13.59592 30.383,30.381c0,16.78508 -13.59681,30.381 -30.383,30.381z"
      opacity="undefined" fill="url(#linearGradient15)" />
    <rect id="svg_1" height="4.66664" width="27.99985" y="41.18745" x="10.29179" fill="#ffffff" />
    <rect id="svg_2" height="4.66664" width="27.99985" y="32.35417" x="16.29176" fill="#ffffff" />
    <rect id="svg_4" height="4.66664" width="27.99985" y="23.68754" x="22.62506" fill="#ffffff" />
    <line id="svg_10" y2="14.49968" x2="-3.87519" y1="14.49968" x1="-3.93769" fill="none" />
    <line id="svg_11" y2="16.93716" x2="12.37469" y1="16.93716" x1="11.4372" fill="none" />
    <path id="svg_13" d="m10.49971,40.4995l5.75018,-2.74976l28.06231,0l-5.99996,2.74998" opacity="NaN" fill="#ffffff" />
    <path id="svg_14" d="m16.81216,31.68706l5.75018,-2.74976l28.06231,0l-5.99996,2.74998" opacity="NaN"
      fill="#ffffff" />
    <path id="svg_15" d="m22.93712,23.06212l5.75018,-2.74976l28.06231,0l-5.99996,2.74998" opacity="NaN"
      fill="#ffffff" />
  </g>
</svg>